<svg xmlns="http://www.w3.org/2000/svg"  viewBox="0 0 100 100" width="100px" height="100px"><g><circle cx="77" cy="13" r="1" fill="#f1bc19"/><circle cx="50" cy="50" r="37" fill="#e4e4f9"/><circle cx="83" cy="15" r="4" fill="#f1bc19"/><circle cx="87" cy="24" r="2" fill="#8889b9"/><circle cx="81" cy="76" r="2" fill="#fbcd59"/><circle cx="15" cy="63" r="4" fill="#fbcd59"/><circle cx="25" cy="87" r="2" fill="#8889b9"/><circle cx="18.375" cy="54.5" r="2.5" fill="#fff"/><circle cx="77.5" cy="30.5" r="1.5" fill="#fff"/><path fill="#fdfcef" d="M66.719,73H35.281C31.26,73,28,69.74,28,65.719V34.281C28,30.26,31.26,27,35.281,27h31.438 C70.74,27,74,30.26,74,34.281v31.438C74,69.74,70.74,73,66.719,73z"/><path fill="#472b29" d="M67.719,27.4c3.243,0,5.881,2.638,5.881,5.881v33.438c0,3.243-2.638,5.881-5.881,5.881H34.281 c-3.243,0-5.881-2.638-5.881-5.881V33.281c0-3.243,2.638-5.881,5.881-5.881H67.719 M67.719,26H34.281C30.26,26,27,29.26,27,33.281 v33.438C27,70.74,30.26,74,34.281,74h33.438C71.74,74,75,70.74,75,66.719V33.281C75,29.26,71.74,26,67.719,26L67.719,26z"/><path fill="#472b29" d="M31.5,40.167c-0.276,0-0.5-0.224-0.5-0.5v-4.333C31,32.393,33.393,30,36.333,30H55.5 c0.276,0,0.5,0.224,0.5,0.5S55.776,31,55.5,31H36.333C33.943,31,32,32.944,32,35.333v4.333C32,39.943,31.776,40.167,31.5,40.167z"/><path fill="#472b29" d="M31.5,55.245c-0.276,0-0.5-0.224-0.5-0.5V42.5c0-0.276,0.224-0.5,0.5-0.5s0.5,0.224,0.5,0.5v12.245 C32,55.021,31.776,55.245,31.5,55.245z"/><path fill="#472b29" d="M39.583,70h-3.25C33.393,70,31,67.607,31,64.667v-6.241c0-0.276,0.224-0.5,0.5-0.5 s0.5,0.224,0.5,0.5v6.241C32,67.056,33.943,69,36.333,69h3.25c0.276,0,0.5,0.224,0.5,0.5S39.859,70,39.583,70z"/><path fill="#472b29" d="M65.667,70h-22.75c-0.276,0-0.5-0.224-0.5-0.5s0.224-0.5,0.5-0.5h22.75 C68.057,69,70,67.056,70,64.667v-5.083c0-0.276,0.224-0.5,0.5-0.5s0.5,0.224,0.5,0.5v5.083C71,67.607,68.607,70,65.667,70z"/><path fill="#472b29" d="M70.5,56.167c-0.276,0-0.5-0.224-0.5-0.5V35.333C70,32.944,68.057,31,65.667,31h-0.75 c-0.276,0-0.5-0.224-0.5-0.5s0.224-0.5,0.5-0.5h0.75C68.607,30,71,32.393,71,35.333v20.333C71,55.943,70.776,56.167,70.5,56.167z"/><path fill="#472b29" d="M62.5,31h-3.25c-0.276,0-0.5-0.224-0.5-0.5s0.224-0.5,0.5-0.5h3.25c0.276,0,0.5,0.224,0.5,0.5 S62.776,31,62.5,31z"/><path fill="#1c1c1c" d="M58.191,65H43.809C42.257,65,41,63.743,41,62.191V37.809C41,36.257,42.257,35,43.809,35h14.383 C59.743,35,61,36.257,61,37.809v24.383C61,63.743,59.743,65,58.191,65z"/><path fill="#7c7c7c" d="M57.734,44H44.266C43.567,44,43,43.433,43,42.734v-4.468C43,37.567,43.567,37,44.266,37h13.468 C58.433,37,59,37.567,59,38.266v4.468C59,43.433,58.433,44,57.734,44z"/><g><path fill="#d3d3d1" d="M51,62H45c-1.104,0-2-0.895-2-2v0c0-1.104,0.895-2,2-2H51c1.104,0,2,0.895,2,2v0 C53,61.105,52.105,62,51,62z"/></g><g><circle cx="45" cy="54" r="2" fill="#d3d3d1"/></g><g><circle cx="51" cy="54" r="2" fill="#d3d3d1"/></g><g><circle cx="57" cy="54" r="2" fill="#fe9200"/></g><g><circle cx="57" cy="60" r="2" fill="#fe9200"/></g><g><circle cx="45" cy="48" r="2" fill="#d3d3d1"/></g><g><circle cx="51" cy="48" r="2" fill="#d3d3d1"/></g><g><circle cx="57" cy="48" r="2" fill="#fe9200"/></g></g></svg>